<mxfile host="app.diagrams.net" modified="2020-08-05T17:10:24.277Z" agent="5.0 (Windows NT 10.0; Win64; x64) AppleWebKit/537.36 (KHTML, like Gecko) Chrome/84.0.4147.105 Safari/537.36" etag="Tikj5WjFQcb8E6zIK6yV" version="13.6.0" type="github">
  <diagram name="Page-1" id="e7e014a7-5840-1c2e-5031-d8a46d1fe8dd">
    <mxGraphModel dx="1038" dy="580" grid="1" gridSize="10" guides="1" tooltips="1" connect="1" arrows="1" fold="1" page="1" pageScale="1" pageWidth="1169" pageHeight="826" background="#ffffff" math="0" shadow="0">
      <root>
        <mxCell id="0" />
        <mxCell id="1" parent="0" />
        <mxCell id="2" value="usuario" style="swimlane;whiteSpace=wrap" parent="1" vertex="1">
          <mxGeometry x="164.5" y="128" width="280" height="570" as="geometry" />
        </mxCell>
        <mxCell id="5" value="" style="ellipse;shape=startState;fillColor=#000000;strokeColor=#ff0000;" parent="2" vertex="1">
          <mxGeometry x="100" y="40" width="30" height="30" as="geometry" />
        </mxCell>
        <mxCell id="6" value="" style="edgeStyle=elbowEdgeStyle;elbow=horizontal;verticalAlign=bottom;endArrow=open;endSize=8;strokeColor=#FF0000;endFill=1;rounded=0" parent="2" source="5" target="7" edge="1">
          <mxGeometry x="100" y="40" as="geometry">
            <mxPoint x="115" y="110" as="targetPoint" />
          </mxGeometry>
        </mxCell>
        <mxCell id="7" value="envia JSON" style="" parent="2" vertex="1">
          <mxGeometry x="60" y="110" width="110" height="50" as="geometry" />
        </mxCell>
        <mxCell id="biEHqqJKWD3RNGgDKz9I-55" value="Retorna Message :&#xa;Correo ya existe" style="" vertex="1" parent="2">
          <mxGeometry x="75.5" y="366" width="110" height="50" as="geometry" />
        </mxCell>
        <mxCell id="biEHqqJKWD3RNGgDKz9I-67" value="Usuario creado &#xa;con Ã©xito" style="" vertex="1" parent="2">
          <mxGeometry x="75.5" y="492" width="110" height="50" as="geometry" />
        </mxCell>
        <mxCell id="3" value="api RESTful" style="swimlane;whiteSpace=wrap" parent="1" vertex="1">
          <mxGeometry x="444.5" y="128" width="280" height="570" as="geometry" />
        </mxCell>
        <mxCell id="biEHqqJKWD3RNGgDKz9I-42" style="edgeStyle=orthogonalEdgeStyle;rounded=0;orthogonalLoop=1;jettySize=auto;html=1;exitX=0.5;exitY=1;exitDx=0;exitDy=0;entryX=0.5;entryY=0;entryDx=0;entryDy=0;" edge="1" parent="3" source="15" target="16">
          <mxGeometry relative="1" as="geometry" />
        </mxCell>
        <mxCell id="15" value="localhost:9090/user/create" style="" parent="3" vertex="1">
          <mxGeometry x="40.5" y="42" width="200" height="60" as="geometry" />
        </mxCell>
        <mxCell id="biEHqqJKWD3RNGgDKz9I-44" style="edgeStyle=orthogonalEdgeStyle;rounded=0;orthogonalLoop=1;jettySize=auto;html=1;exitX=0.5;exitY=1;exitDx=0;exitDy=0;entryX=0.5;entryY=0;entryDx=0;entryDy=0;" edge="1" parent="3" source="16" target="biEHqqJKWD3RNGgDKz9I-43">
          <mxGeometry relative="1" as="geometry" />
        </mxCell>
        <mxCell id="16" value="Valida Formato de Correo" style="" parent="3" vertex="1">
          <mxGeometry x="50.5" y="112" width="180" height="45" as="geometry" />
        </mxCell>
        <mxCell id="biEHqqJKWD3RNGgDKz9I-47" style="edgeStyle=orthogonalEdgeStyle;rounded=0;orthogonalLoop=1;jettySize=auto;html=1;exitX=0.5;exitY=1;exitDx=0;exitDy=0;entryX=0.5;entryY=0;entryDx=0;entryDy=0;" edge="1" parent="3" source="biEHqqJKWD3RNGgDKz9I-43" target="biEHqqJKWD3RNGgDKz9I-46">
          <mxGeometry relative="1" as="geometry" />
        </mxCell>
        <mxCell id="biEHqqJKWD3RNGgDKz9I-43" value="Valida Formato de Password" style="" vertex="1" parent="3">
          <mxGeometry x="50" y="172" width="180" height="45" as="geometry" />
        </mxCell>
        <mxCell id="biEHqqJKWD3RNGgDKz9I-49" style="edgeStyle=orthogonalEdgeStyle;rounded=0;orthogonalLoop=1;jettySize=auto;html=1;exitX=0.5;exitY=1;exitDx=0;exitDy=0;entryX=0.5;entryY=0;entryDx=0;entryDy=0;" edge="1" parent="3" source="biEHqqJKWD3RNGgDKz9I-46" target="biEHqqJKWD3RNGgDKz9I-48">
          <mxGeometry relative="1" as="geometry" />
        </mxCell>
        <mxCell id="biEHqqJKWD3RNGgDKz9I-46" value="Service Create User" style="" vertex="1" parent="3">
          <mxGeometry x="50.5" y="232" width="180" height="45" as="geometry" />
        </mxCell>
        <mxCell id="biEHqqJKWD3RNGgDKz9I-59" style="edgeStyle=orthogonalEdgeStyle;rounded=0;orthogonalLoop=1;jettySize=auto;html=1;exitX=0.25;exitY=1;exitDx=0;exitDy=0;" edge="1" parent="3" source="biEHqqJKWD3RNGgDKz9I-48" target="biEHqqJKWD3RNGgDKz9I-52">
          <mxGeometry relative="1" as="geometry" />
        </mxCell>
        <mxCell id="biEHqqJKWD3RNGgDKz9I-48" value="Service Create User" style="" vertex="1" parent="3">
          <mxGeometry x="50.5" y="292" width="179.5" height="45" as="geometry" />
        </mxCell>
        <mxCell id="biEHqqJKWD3RNGgDKz9I-64" style="edgeStyle=orthogonalEdgeStyle;rounded=0;orthogonalLoop=1;jettySize=auto;html=1;exitX=0.5;exitY=1;exitDx=0;exitDy=0;entryX=0.5;entryY=0;entryDx=0;entryDy=0;" edge="1" parent="3" source="biEHqqJKWD3RNGgDKz9I-52" target="biEHqqJKWD3RNGgDKz9I-62">
          <mxGeometry relative="1" as="geometry" />
        </mxCell>
        <mxCell id="biEHqqJKWD3RNGgDKz9I-52" value="Existe&lt;br&gt;Mail" style="rhombus;whiteSpace=wrap;html=1;" vertex="1" parent="3">
          <mxGeometry x="100.5" y="360" width="69.5" height="62" as="geometry" />
        </mxCell>
        <mxCell id="biEHqqJKWD3RNGgDKz9I-61" value="SI" style="text;html=1;strokeColor=none;fillColor=none;align=center;verticalAlign=middle;whiteSpace=wrap;rounded=0;" vertex="1" parent="3">
          <mxGeometry x="40.5" y="392" width="40" height="20" as="geometry" />
        </mxCell>
        <mxCell id="biEHqqJKWD3RNGgDKz9I-60" value="NO" style="text;html=1;strokeColor=none;fillColor=none;align=center;verticalAlign=middle;whiteSpace=wrap;rounded=0;" vertex="1" parent="3">
          <mxGeometry x="140.5" y="422" width="40" height="20" as="geometry" />
        </mxCell>
        <mxCell id="biEHqqJKWD3RNGgDKz9I-62" value="Se almacena usuario en la BD" style="" vertex="1" parent="3">
          <mxGeometry x="50.25" y="452" width="179.5" height="45" as="geometry" />
        </mxCell>
        <mxCell id="4" value="H2" style="swimlane;whiteSpace=wrap;startSize=23;" parent="1" vertex="1">
          <mxGeometry x="724.5" y="128" width="280" height="570" as="geometry" />
        </mxCell>
        <mxCell id="biEHqqJKWD3RNGgDKz9I-66" value="Se crea el UUID de &#xa;usuario nuevo" style="" vertex="1" parent="4">
          <mxGeometry x="50.25" y="462" width="179.5" height="45" as="geometry" />
        </mxCell>
        <mxCell id="biEHqqJKWD3RNGgDKz9I-41" style="edgeStyle=orthogonalEdgeStyle;rounded=0;orthogonalLoop=1;jettySize=auto;html=1;exitX=1;exitY=0.5;exitDx=0;exitDy=0;entryX=0;entryY=0.5;entryDx=0;entryDy=0;" edge="1" parent="1" source="7" target="15">
          <mxGeometry relative="1" as="geometry" />
        </mxCell>
        <mxCell id="biEHqqJKWD3RNGgDKz9I-57" style="edgeStyle=orthogonalEdgeStyle;rounded=0;orthogonalLoop=1;jettySize=auto;html=1;exitX=0;exitY=0.5;exitDx=0;exitDy=0;entryX=1;entryY=0.5;entryDx=0;entryDy=0;" edge="1" parent="1" source="biEHqqJKWD3RNGgDKz9I-52" target="biEHqqJKWD3RNGgDKz9I-55">
          <mxGeometry relative="1" as="geometry" />
        </mxCell>
        <mxCell id="biEHqqJKWD3RNGgDKz9I-68" style="edgeStyle=orthogonalEdgeStyle;rounded=0;orthogonalLoop=1;jettySize=auto;html=1;exitX=1;exitY=0.5;exitDx=0;exitDy=0;entryX=0;entryY=0.5;entryDx=0;entryDy=0;" edge="1" parent="1" source="biEHqqJKWD3RNGgDKz9I-62" target="biEHqqJKWD3RNGgDKz9I-66">
          <mxGeometry relative="1" as="geometry" />
        </mxCell>
        <mxCell id="biEHqqJKWD3RNGgDKz9I-70" style="edgeStyle=orthogonalEdgeStyle;rounded=0;orthogonalLoop=1;jettySize=auto;html=1;exitX=0.5;exitY=1;exitDx=0;exitDy=0;entryX=1;entryY=0.5;entryDx=0;entryDy=0;" edge="1" parent="1" source="biEHqqJKWD3RNGgDKz9I-62" target="biEHqqJKWD3RNGgDKz9I-67">
          <mxGeometry relative="1" as="geometry" />
        </mxCell>
      </root>
    </mxGraphModel>
  </diagram>
</mxfile>
